<?xml version="1.0" standalone="no"?>
<!DOCTYPE svg PUBLIC "-//W3C//DTD SVG 20010904//EN"
 "http://www.w3.org/TR/2001/REC-SVG-20010904/DTD/svg10.dtd">
<svg version="1.0" xmlns="http://www.w3.org/2000/svg"
 width="300.000000pt" height="119.000000pt" viewBox="0 0 300.000000 119.000000"
 preserveAspectRatio="xMidYMid meet">
<metadata>
Created by potrace 1.10, written by Peter Selinger 2001-2011
</metadata>
<g transform="translate(0.000000,119.000000) scale(0.100000,-0.100000)"
fill="#000000" stroke="none">
<path d="M1620 847 c-39 -17 -100 -67 -100 -82 0 -7 -7 -18 -16 -26 -10 -8
-14 -25 -13 -49 2 -23 -4 -48 -15 -65 -16 -24 -19 -25 -34 -12 -9 8 -24 17
-32 21 -8 4 -26 13 -40 21 -14 8 -50 15 -81 15 -54 0 -59 -2 -98 -42 -57 -59
-56 -92 2 -118 23 -11 53 -20 67 -20 86 -1 155 -51 166 -119 l7 -41 98 0 c107
0 100 -4 114 67 4 18 18 42 32 53 27 21 92 42 132 42 52 1 111 40 111 75 0 4
-20 29 -44 56 -42 45 -46 47 -98 47 -34 0 -68 -7 -93 -20 -51 -26 -55 -19 -9
17 126 94 140 133 64 170 -50 25 -82 27 -120 10z m109 -20 c25 -12 46 -28 49
-34 2 -7 -18 -32 -44 -55 -103 -94 -134 -129 -133 -151 l0 -22 11 22 c6 13 20
25 32 29 12 3 28 13 37 21 10 8 43 15 83 16 l66 2 40 -45 c21 -25 39 -48 40
-53 1 -16 -65 -45 -118 -52 -102 -13 -157 -56 -169 -131 l-6 -35 -85 3 -86 3
-7 32 c-15 73 -72 116 -170 129 -66 8 -109 29 -109 52 1 23 54 80 85 92 30 12
114 2 135 -15 8 -7 25 -16 38 -19 25 -8 46 -41 38 -62 -3 -8 -1 -14 4 -14 6 0
10 12 10 27 0 14 11 41 26 60 14 18 20 33 15 33 -19 0 -12 56 9 75 11 10 20
24 20 31 0 7 19 26 43 42 71 49 83 50 146 19z"/>
<path d="M1255 610 c-3 -5 -1 -10 4 -10 6 0 11 5 11 10 0 6 -2 10 -4 10 -3 0
-8 -4 -11 -10z"/>
<path d="M1790 610 c0 -5 5 -10 11 -10 5 0 7 5 4 10 -3 6 -8 10 -11 10 -2 0
-4 -4 -4 -10z"/>
</g>
</svg>
